# xmcd
#
# Track frame offsets: 
#        150
#        12024
#        25800
#        48639
#        68748
#        86205
#        106248
#        117158
#        133151
#        145851
#        167921
#
# Disc length: 2537 seconds
#
# Revision: 0
# Processed by: cddbd v1.5.2PL0 Copyright (c) Steve Scherf et al.
# Submitted via: ExactAudioCopyFreeDBPlugin 1.0
#
DISCID=9409e70b
DTITLE=Infamous Stringdusters - Silver Sky
DYEAR=2012
DGENRE=Bluegrass
TTITLE0=Don't Mean Nuthin'
TTITLE1=Rockets
TTITLE2=The Hitchhiker
TTITLE3=Tears of the Earth
TTITLE4=The Place I Call Home
TTITLE5=Like I Do
TTITLE6=Heady Festy
TTITLE7=Night on the River
TTITLE8=When Night Comes Around
TTITLE9=Fire
TTITLE10=Walking on the Moon
EXTD=
EXTT0=
EXTT1=
EXTT2=
EXTT3=
EXTT4=
EXTT5=
EXTT6=
EXTT7=
EXTT8=
EXTT9=
EXTT10=
PLAYORDER=
